STARTFONT 2.1
COMMENT Recovered from ar1.1:SMT10A 1 (Xerox Alto CONVERT font source (AL) recovered from MIT CADR AR1 ARC!!!)
FONT MIT-CADR-SMT10A-AL-AR1
SIZE 10 72 72
FONTBOUNDINGBOX 16 10 0 -10
STARTPROPERTIES 2
FONT_ASCENT 0
FONT_DESCENT 10
ENDPROPERTIES
CHARS 128
STARTCHAR C0000
ENCODING -1 0
SWIDTH 0 0
DWIDTH 0 0
BBX 0 10 0 -10
BITMAP
00
00
00
00
00
00
00
00
00
00
ENDCHAR
STARTCHAR C0001
ENCODING -1 1
SWIDTH 1000 0
DWIDTH 10 0
BBX 10 10 0 -10
BITMAP
0C00
1800
3000
7C00
0000
7C00
0000
0000
0000
0000
ENDCHAR
STARTCHAR C0002
ENCODING -1 2
SWIDTH 0 0
DWIDTH 0 0
BBX 5 10 0 -10
BITMAP
00
00
00
00
00
00
00
80
E0
F8
ENDCHAR
STARTCHAR C0003
ENCODING -1 3
SWIDTH 600 0
DWIDTH 6 0
BBX 6 10 0 -10
BITMAP
00
30
48
30
00
30
48
30
00
00
ENDCHAR
STARTCHAR C0004
ENCODING -1 4
SWIDTH 1600 0
DWIDTH 16 0
BBX 16 10 0 -10
BITMAP
0000
0000
0000
0000
0000
0000
0000
0000
0000
0000
ENDCHAR
STARTCHAR C0005
ENCODING -1 5
SWIDTH 800 0
DWIDTH 8 0
BBX 8 10 0 -10
BITMAP
00
7E
66
42
5A
5A
42
66
7E
00
ENDCHAR
STARTCHAR C0006
ENCODING -1 6
SWIDTH 800 0
DWIDTH 8 0
BBX 8 10 0 -10
BITMAP
00
3C
66
5E
56
5E
60
3E
00
00
ENDCHAR
STARTCHAR C0007
ENCODING -1 7
SWIDTH 700 0
DWIDTH 7 0
BBX 7 10 0 -10
BITMAP
00
00
00
38
38
38
00
00
00
00
ENDCHAR
STARTCHAR C0008
ENCODING -1 8
SWIDTH 0 0
DWIDTH 0 0
BBX 0 10 0 -10
BITMAP
00
00
00
00
00
00
00
00
00
00
ENDCHAR
STARTCHAR C0009
ENCODING -1 9
SWIDTH 0 0
DWIDTH 0 0
BBX 0 10 0 -10
BITMAP
00
00
00
00
00
00
00
00
00
00
ENDCHAR
STARTCHAR C000A
ENCODING -1 10
SWIDTH 0 0
DWIDTH 0 0
BBX 0 10 0 -10
BITMAP
00
00
00
00
00
00
00
00
00
00
ENDCHAR
STARTCHAR C000B
ENCODING -1 11
SWIDTH 900 0
DWIDTH 9 0
BBX 9 10 0 -10
BITMAP
1C00
2200
2200
3600
1400
3600
2200
6300
4100
7F00
ENDCHAR
STARTCHAR C000C
ENCODING -1 12
SWIDTH 0 0
DWIDTH 0 0
BBX 0 10 0 -10
BITMAP
00
00
00
00
00
00
00
00
00
00
ENDCHAR
STARTCHAR C000D
ENCODING -1 13
SWIDTH 0 0
DWIDTH 0 0
BBX 0 10 0 -10
BITMAP
00
00
00
00
00
00
00
00
00
00
ENDCHAR
STARTCHAR C000E
ENCODING -1 14
SWIDTH 800 0
DWIDTH 8 0
BBX 8 10 0 -10
BITMAP
00
00
0C
7E
18
7E
30
00
00
00
ENDCHAR
STARTCHAR C000F
ENCODING -1 15
SWIDTH 700 0
DWIDTH 7 0
BBX 7 10 0 -10
BITMAP
00
00
6C
6C
6C
00
00
00
00
00
ENDCHAR
STARTCHAR C0010
ENCODING -1 16
SWIDTH 900 0
DWIDTH 9 0
BBX 9 10 0 -10
BITMAP
0180
0200
0600
1600
FE00
1600
0600
0200
0180
0000
ENDCHAR
STARTCHAR C0011
ENCODING -1 17
SWIDTH 300 0
DWIDTH 3 0
BBX 3 10 0 -10
BITMAP
00
40
40
40
40
40
00
40
40
00
ENDCHAR
STARTCHAR C0012
ENCODING -1 18
SWIDTH 700 0
DWIDTH 7 0
BBX 7 10 0 -10
BITMAP
60
30
18
7C
00
7C
00
00
00
00
ENDCHAR
STARTCHAR C0013
ENCODING -1 19
SWIDTH 1200 0
DWIDTH 12 0
BBX 12 10 0 -10
BITMAP
0000
0000
C000
DC00
7200
9C00
2600
1C00
0000
0000
ENDCHAR
STARTCHAR C0014
ENCODING -1 20
SWIDTH 1100 0
DWIDTH 11 0
BBX 11 10 0 -10
BITMAP
1F00
3F80
3180
3180
3180
3180
7FC0
EAE0
D560
7FC0
ENDCHAR
STARTCHAR C0015
ENCODING -1 21
SWIDTH 500 0
DWIDTH 5 0
BBX 5 10 0 -10
BITMAP
00
00
78
78
00
00
00
00
00
00
ENDCHAR
STARTCHAR C0016
ENCODING -1 22
SWIDTH 600 0
DWIDTH 6 0
BBX 6 10 0 -10
BITMAP
00
64
9C
78
30
78
E4
98
00
00
ENDCHAR
STARTCHAR C0017
ENCODING -1 23
SWIDTH 900 0
DWIDTH 9 0
BBX 9 10 0 -10
BITMAP
0000
0000
0000
6300
3600
1C00
0800
0000
0000
0000
ENDCHAR
STARTCHAR C0018
ENCODING -1 24
SWIDTH 900 0
DWIDTH 9 0
BBX 9 10 0 -10
BITMAP
0000
0000
0000
0800
1C00
3600
6300
0000
0000
0000
ENDCHAR
STARTCHAR C0019
ENCODING -1 25
SWIDTH 1100 0
DWIDTH 11 0
BBX 11 10 0 -10
BITMAP
0000
0000
E100
7F80
3FC0
7F80
E100
0000
0000
0000
ENDCHAR
STARTCHAR C001A
ENCODING -1 26
SWIDTH 0 0
DWIDTH 0 0
BBX 0 10 0 -10
BITMAP
00
00
00
00
00
00
00
00
00
00
ENDCHAR
STARTCHAR C001B
ENCODING -1 27
SWIDTH 600 0
DWIDTH 6 0
BBX 6 10 0 -10
BITMAP
30
78
B4
B0
78
34
B4
78
30
30
ENDCHAR
STARTCHAR C001C
ENCODING -1 28
SWIDTH 800 0
DWIDTH 8 0
BBX 8 10 0 -10
BITMAP
00
00
30
68
30
7E
6C
3E
00
00
ENDCHAR
STARTCHAR C001D
ENCODING -1 29
SWIDTH 1600 0
DWIDTH 16 0
BBX 16 10 0 -10
BITMAP
0380
0640
0600
0380
06C0
06C0
0380
00C0
04C0
0380
ENDCHAR
STARTCHAR C001E
ENCODING -1 30
SWIDTH 600 0
DWIDTH 6 0
BBX 6 10 0 -10
BITMAP
00
60
60
60
60
60
00
60
60
00
ENDCHAR
STARTCHAR C001F
ENCODING -1 31
SWIDTH 1600 0
DWIDTH 16 0
BBX 16 10 0 -10
BITMAP
FFFC
FFFC
FFFC
FFFC
FFFC
FFFC
FFFC
FFFC
FFFC
FFFC
ENDCHAR
STARTCHAR C0020
ENCODING -1 32
SWIDTH 300 0
DWIDTH 3 0
BBX 3 10 0 -10
BITMAP
00
00
00
00
00
00
00
00
00
00
ENDCHAR
STARTCHAR C0021
ENCODING -1 33
SWIDTH 800 0
DWIDTH 8 0
BBX 8 10 0 -10
BITMAP
10
38
7C
EE
28
28
28
28
28
00
ENDCHAR
STARTCHAR C0022
ENCODING -1 34
SWIDTH 1400 0
DWIDTH 14 0
BBX 14 10 0 -10
BITMAP
3F00
40FC
9D84
95F8
A520
CFC0
7980
3F00
0000
0000
ENDCHAR
STARTCHAR C0023
ENCODING -1 35
SWIDTH 900 0
DWIDTH 9 0
BBX 9 10 0 -10
BITMAP
0000
0000
3600
7F00
3600
7F00
3600
0000
0000
0000
ENDCHAR
STARTCHAR C0024
ENCODING -1 36
SWIDTH 900 0
DWIDTH 9 0
BBX 9 10 0 -10
BITMAP
3600
6300
C180
C180
C180
C180
C180
C180
6300
3600
ENDCHAR
STARTCHAR C0025
ENCODING -1 37
SWIDTH 800 0
DWIDTH 8 0
BBX 8 10 0 -10
BITMAP
00
18
30
78
DC
DC
FC
78
30
18
ENDCHAR
STARTCHAR C0026
ENCODING -1 38
SWIDTH 100 0
DWIDTH 1 0
BBX 10 10 0 -10
BITMAP
3F00
6180
C0C0
8040
8040
8040
8040
C0C0
6180
3F00
ENDCHAR
STARTCHAR C0027
ENCODING -1 39
SWIDTH 500 0
DWIDTH 5 0
BBX 5 10 0 -10
BITMAP
30
30
30
00
00
00
00
00
00
00
ENDCHAR
STARTCHAR C0028
ENCODING -1 40
SWIDTH 600 0
DWIDTH 6 0
BBX 6 10 0 -10
BITMAP
18
30
60
60
60
60
60
60
30
18
ENDCHAR
STARTCHAR C0029
ENCODING -1 41
SWIDTH 600 0
DWIDTH 6 0
BBX 6 10 0 -10
BITMAP
60
30
18
18
18
18
18
18
30
60
ENDCHAR
STARTCHAR C002A
ENCODING -1 42
SWIDTH 800 0
DWIDTH 8 0
BBX 8 10 0 -10
BITMAP
00
00
18
7E
3C
7E
18
00
00
00
ENDCHAR
STARTCHAR C002B
ENCODING -1 43
SWIDTH 800 0
DWIDTH 8 0
BBX 8 10 0 -10
BITMAP
00
00
18
18
7E
18
18
00
00
00
ENDCHAR
STARTCHAR C002C
ENCODING -1 44
SWIDTH 500 0
DWIDTH 5 0
BBX 5 10 0 -10
BITMAP
00
00
00
00
00
00
70
30
30
60
ENDCHAR
STARTCHAR C002D
ENCODING -1 45
SWIDTH 600 0
DWIDTH 6 0
BBX 6 10 0 -10
BITMAP
00
00
00
00
78
78
00
00
00
00
ENDCHAR
STARTCHAR C002E
ENCODING -1 46
SWIDTH 400 0
DWIDTH 4 0
BBX 4 10 0 -10
BITMAP
00
00
00
00
00
00
60
60
00
00
ENDCHAR
STARTCHAR C002F
ENCODING -1 47
SWIDTH 800 0
DWIDTH 8 0
BBX 8 10 0 -10
BITMAP
06
06
0C
0C
18
18
30
30
60
60
ENDCHAR
STARTCHAR C0030
ENCODING -1 48
SWIDTH 700 0
DWIDTH 7 0
BBX 7 10 0 -10
BITMAP
04
3C
7E
D6
E6
C6
CC
78
00
00
ENDCHAR
STARTCHAR C0031
ENCODING -1 49
SWIDTH 500 0
DWIDTH 5 0
BBX 5 10 0 -10
BITMAP
00
10
30
70
30
60
60
F0
00
00
ENDCHAR
STARTCHAR C0032
ENCODING -1 50
SWIDTH 700 0
DWIDTH 7 0
BBX 7 10 0 -10
BITMAP
00
1C
36
26
0C
30
64
FC
00
00
ENDCHAR
STARTCHAR C0033
ENCODING -1 51
SWIDTH 700 0
DWIDTH 7 0
BBX 7 10 0 -10
BITMAP
00
3E
66
0C
38
8C
CC
78
00
00
ENDCHAR
STARTCHAR C0034
ENCODING -1 52
SWIDTH 700 0
DWIDTH 7 0
BBX 7 10 0 -10
BITMAP
00
04
0C
1C
2C
48
FE
18
00
00
ENDCHAR
STARTCHAR C0035
ENCODING -1 53
SWIDTH 600 0
DWIDTH 6 0
BBX 7 10 0 -10
BITMAP
00
3E
3C
60
78
8C
CC
78
00
00
ENDCHAR
STARTCHAR C0036
ENCODING -1 54
SWIDTH 700 0
DWIDTH 7 0
BBX 7 10 0 -10
BITMAP
00
1E
36
70
7C
CC
CC
78
00
00
ENDCHAR
STARTCHAR C0037
ENCODING -1 55
SWIDTH 700 0
DWIDTH 7 0
BBX 7 10 0 -10
BITMAP
00
7E
FE
0C
18
30
20
60
00
00
ENDCHAR
STARTCHAR C0038
ENCODING -1 56
SWIDTH 700 0
DWIDTH 7 0
BBX 7 10 0 -10
BITMAP
00
38
6C
6C
78
CC
CC
78
00
00
ENDCHAR
STARTCHAR C0039
ENCODING -1 57
SWIDTH 600 0
DWIDTH 6 0
BBX 6 10 0 -10
BITMAP
00
78
CC
CC
7C
0C
D8
F0
00
00
ENDCHAR
STARTCHAR C003A
ENCODING -1 58
SWIDTH 500 0
DWIDTH 5 0
BBX 5 10 0 -10
BITMAP
00
00
00
30
30
00
30
30
00
00
ENDCHAR
STARTCHAR C003B
ENCODING -1 59
SWIDTH 500 0
DWIDTH 5 0
BBX 5 10 0 -10
BITMAP
00
00
00
30
30
00
70
30
60
00
ENDCHAR
STARTCHAR C003C
ENCODING -1 60
SWIDTH 600 0
DWIDTH 6 0
BBX 6 10 0 -10
BITMAP
00
00
18
30
60
30
18
00
00
00
ENDCHAR
STARTCHAR C003D
ENCODING -1 61
SWIDTH 600 0
DWIDTH 6 0
BBX 6 10 0 -10
BITMAP
00
00
00
78
00
78
00
00
00
00
ENDCHAR
STARTCHAR C003E
ENCODING -1 62
SWIDTH 600 0
DWIDTH 6 0
BBX 6 10 0 -10
BITMAP
00
00
60
30
18
30
60
00
00
00
ENDCHAR
STARTCHAR C003F
ENCODING -1 63
SWIDTH 1000 0
DWIDTH 10 0
BBX 10 10 0 -10
BITMAP
0000
0000
0000
0000
0000
0600
7F00
0380
7F00
0600
ENDCHAR
STARTCHAR C0040
ENCODING -1 64
SWIDTH 1100 0
DWIDTH 11 0
BBX 11 10 0 -10
BITMAP
1F00
3F80
4040
D160
C460
D160
CE60
60C0
3F80
1F00
ENDCHAR
STARTCHAR C0041
ENCODING -1 65
SWIDTH 800 0
DWIDTH 8 0
BBX 8 10 0 -10
BITMAP
00
18
18
3C
34
7E
62
F7
00
00
ENDCHAR
STARTCHAR C0042
ENCODING -1 66
SWIDTH 800 0
DWIDTH 8 0
BBX 8 10 0 -10
BITMAP
00
FC
66
64
7E
63
63
FE
00
00
ENDCHAR
STARTCHAR C0043
ENCODING -1 67
SWIDTH 600 0
DWIDTH 6 0
BBX 6 10 0 -10
BITMAP
00
78
CC
C4
C0
C0
CC
78
00
00
ENDCHAR
STARTCHAR C0044
ENCODING -1 68
SWIDTH 700 0
DWIDTH 7 0
BBX 7 10 0 -10
BITMAP
00
FC
66
66
66
66
66
FC
00
00
ENDCHAR
STARTCHAR C0045
ENCODING -1 69
SWIDTH 700 0
DWIDTH 7 0
BBX 7 10 0 -10
BITMAP
00
FC
66
68
78
68
66
FC
00
00
ENDCHAR
STARTCHAR C0046
ENCODING -1 70
SWIDTH 700 0
DWIDTH 7 0
BBX 7 10 0 -10
BITMAP
00
FC
66
68
78
68
60
F0
00
00
ENDCHAR
STARTCHAR C0047
ENCODING -1 71
SWIDTH 700 0
DWIDTH 7 0
BBX 7 10 0 -10
BITMAP
00
7C
CC
C6
C0
DE
CC
78
00
00
ENDCHAR
STARTCHAR C0048
ENCODING -1 72
SWIDTH 800 0
DWIDTH 8 0
BBX 8 10 0 -10
BITMAP
00
EF
66
66
7E
66
66
EF
00
00
ENDCHAR
STARTCHAR C0049
ENCODING -1 73
SWIDTH 500 0
DWIDTH 5 0
BBX 5 10 0 -10
BITMAP
00
78
30
30
30
30
30
78
00
00
ENDCHAR
STARTCHAR C004A
ENCODING -1 74
SWIDTH 600 0
DWIDTH 6 0
BBX 6 10 0 -10
BITMAP
00
3C
18
18
18
18
D8
70
00
00
ENDCHAR
STARTCHAR C004B
ENCODING -1 75
SWIDTH 800 0
DWIDTH 8 0
BBX 8 10 0 -10
BITMAP
00
F7
6C
78
78
6C
66
F7
00
00
ENDCHAR
STARTCHAR C004C
ENCODING -1 76
SWIDTH 700 0
DWIDTH 7 0
BBX 7 10 0 -10
BITMAP
00
F0
60
60
60
60
62
FC
00
00
ENDCHAR
STARTCHAR C004D
ENCODING -1 77
SWIDTH 1100 0
DWIDTH 11 0
BBX 11 10 0 -10
BITMAP
0000
F1E0
71C0
7BC0
7FC0
6EC0
6EC0
F5E0
0000
0000
ENDCHAR
STARTCHAR C004E
ENCODING -1 78
SWIDTH 900 0
DWIDTH 9 0
BBX 9 10 0 -10
BITMAP
0000
F780
7300
7B00
6B00
6F00
6700
F780
0000
0000
ENDCHAR
STARTCHAR C004F
ENCODING -1 79
SWIDTH 700 0
DWIDTH 7 0
BBX 7 10 0 -10
BITMAP
00
7C
C6
C6
C6
C6
C6
7C
00
00
ENDCHAR
STARTCHAR C0050
ENCODING -1 80
SWIDTH 700 0
DWIDTH 7 0
BBX 7 10 0 -10
BITMAP
00
FC
66
66
66
7C
60
F0
00
00
ENDCHAR
STARTCHAR C0051
ENCODING -1 81
SWIDTH 600 0
DWIDTH 6 0
BBX 6 10 0 -10
BITMAP
00
78
C4
C4
C4
C4
D4
78
0C
00
ENDCHAR
STARTCHAR C0052
ENCODING -1 82
SWIDTH 800 0
DWIDTH 8 0
BBX 8 10 0 -10
BITMAP
00
FC
66
66
6C
78
66
F7
00
00
ENDCHAR
STARTCHAR C0053
ENCODING -1 83
SWIDTH 600 0
DWIDTH 6 0
BBX 6 10 0 -10
BITMAP
00
78
D8
E0
38
8C
DC
F8
00
00
ENDCHAR
STARTCHAR C0054
ENCODING -1 84
SWIDTH 600 0
DWIDTH 6 0
BBX 6 10 0 -10
BITMAP
00
FC
B4
30
30
30
30
78
00
00
ENDCHAR
STARTCHAR C0055
ENCODING -1 85
SWIDTH 800 0
DWIDTH 8 0
BBX 8 10 0 -10
BITMAP
00
F7
62
62
62
62
62
3C
00
00
ENDCHAR
STARTCHAR C0056
ENCODING -1 86
SWIDTH 900 0
DWIDTH 9 0
BBX 9 10 0 -10
BITMAP
0000
F780
6300
3600
3600
1C00
1C00
0800
0000
0000
ENDCHAR
STARTCHAR C0057
ENCODING -1 87
SWIDTH 1300 0
DWIDTH 13 0
BBX 13 10 0 -10
BITMAP
0000
F778
6230
3260
3760
1DC0
1DC0
0880
0000
0000
ENDCHAR
STARTCHAR C0058
ENCODING -1 88
SWIDTH 800 0
DWIDTH 8 0
BBX 8 10 0 -10
BITMAP
00
F7
66
3C
18
3C
66
EF
00
00
ENDCHAR
STARTCHAR C0059
ENCODING -1 89
SWIDTH 800 0
DWIDTH 8 0
BBX 8 10 0 -10
BITMAP
00
F7
66
3C
18
18
18
3C
00
00
ENDCHAR
STARTCHAR C005A
ENCODING -1 90
SWIDTH 700 0
DWIDTH 7 0
BBX 7 10 0 -10
BITMAP
00
FC
FC
98
30
62
FE
FC
00
00
ENDCHAR
STARTCHAR C005B
ENCODING -1 91
SWIDTH 600 0
DWIDTH 6 0
BBX 6 10 0 -10
BITMAP
78
60
60
60
60
60
60
60
60
78
ENDCHAR
STARTCHAR C005C
ENCODING -1 92
SWIDTH 800 0
DWIDTH 8 0
BBX 8 10 0 -10
BITMAP
60
60
30
30
18
18
0C
0C
06
06
ENDCHAR
STARTCHAR C005D
ENCODING -1 93
SWIDTH 600 0
DWIDTH 6 0
BBX 6 10 0 -10
BITMAP
78
18
18
18
18
18
18
18
18
78
ENDCHAR
STARTCHAR C005E
ENCODING -1 94
SWIDTH 600 0
DWIDTH 6 0
BBX 6 10 0 -10
BITMAP
00
30
78
B4
30
30
30
30
00
00
ENDCHAR
STARTCHAR C005F
ENCODING -1 95
SWIDTH 1000 0
DWIDTH 10 0
BBX 10 10 0 -10
BITMAP
0000
0000
1000
2000
7F80
7F80
2000
1000
0000
0000
ENDCHAR
STARTCHAR C0060
ENCODING -1 96
SWIDTH 0 0
DWIDTH 0 0
BBX 6 10 0 -10
BITMAP
00
00
00
00
00
00
00
00
00
FC
ENDCHAR
STARTCHAR C0061
ENCODING -1 97
SWIDTH 600 0
DWIDTH 6 0
BBX 6 10 0 -10
BITMAP
00
00
00
70
58
78
D8
7C
00
00
ENDCHAR
STARTCHAR C0062
ENCODING -1 98
SWIDTH 600 0
DWIDTH 6 0
BBX 6 10 0 -10
BITMAP
60
E0
60
78
6C
6C
6C
F8
00
00
ENDCHAR
STARTCHAR C0063
ENCODING -1 99
SWIDTH 500 0
DWIDTH 5 0
BBX 5 10 0 -10
BITMAP
00
00
00
70
D8
C0
D8
70
00
00
ENDCHAR
STARTCHAR C0064
ENCODING -1 100
SWIDTH 600 0
DWIDTH 6 0
BBX 6 10 0 -10
BITMAP
18
38
18
78
D8
D8
D8
7C
00
00
ENDCHAR
STARTCHAR C0065
ENCODING -1 101
SWIDTH 500 0
DWIDTH 5 0
BBX 5 10 0 -10
BITMAP
00
00
00
70
D8
F0
C8
70
00
00
ENDCHAR
STARTCHAR C0066
ENCODING -1 102
SWIDTH 500 0
DWIDTH 5 0
BBX 5 10 0 -10
BITMAP
38
68
60
F8
60
60
60
F0
00
00
ENDCHAR
STARTCHAR C0067
ENCODING -1 103
SWIDTH 600 0
DWIDTH 6 0
BBX 6 10 0 -10
BITMAP
00
00
00
74
D8
D8
70
C8
CC
78
ENDCHAR
STARTCHAR C0068
ENCODING -1 104
SWIDTH 800 0
DWIDTH 8 0
BBX 8 10 0 -10
BITMAP
60
E0
60
7C
66
66
66
F7
00
00
ENDCHAR
STARTCHAR C0069
ENCODING -1 105
SWIDTH 400 0
DWIDTH 4 0
BBX 4 10 0 -10
BITMAP
60
60
00
60
E0
60
60
F0
00
00
ENDCHAR
STARTCHAR C006A
ENCODING -1 106
SWIDTH 400 0
DWIDTH 4 0
BBX 4 10 0 -10
BITMAP
30
30
00
30
70
30
30
30
B0
E0
ENDCHAR
STARTCHAR C006B
ENCODING -1 107
SWIDTH 800 0
DWIDTH 8 0
BBX 8 10 0 -10
BITMAP
60
E0
6C
78
70
78
6C
F7
00
00
ENDCHAR
STARTCHAR C006C
ENCODING -1 108
SWIDTH 400 0
DWIDTH 4 0
BBX 4 10 0 -10
BITMAP
60
E0
60
60
60
60
60
F0
00
00
ENDCHAR
STARTCHAR C006D
ENCODING -1 109
SWIDTH 1000 0
DWIDTH 10 0
BBX 10 10 0 -10
BITMAP
0000
0000
0000
F700
6D80
6D80
6D80
FFC0
0000
0000
ENDCHAR
STARTCHAR C006E
ENCODING -1 110
SWIDTH 700 0
DWIDTH 7 0
BBX 7 10 0 -10
BITMAP
00
00
00
F8
6C
6C
6C
FE
00
00
ENDCHAR
STARTCHAR C006F
ENCODING -1 111
SWIDTH 500 0
DWIDTH 5 0
BBX 5 10 0 -10
BITMAP
00
00
00
70
D8
D8
D8
70
00
00
ENDCHAR
STARTCHAR C0070
ENCODING -1 112
SWIDTH 600 0
DWIDTH 6 0
BBX 6 10 0 -10
BITMAP
00
00
00
78
EC
6C
6C
78
60
F0
ENDCHAR
STARTCHAR C0071
ENCODING -1 113
SWIDTH 600 0
DWIDTH 6 0
BBX 6 10 0 -10
BITMAP
00
00
00
78
DC
D8
D8
78
18
3C
ENDCHAR
STARTCHAR C0072
ENCODING -1 114
SWIDTH 600 0
DWIDTH 6 0
BBX 6 10 0 -10
BITMAP
00
00
00
78
EC
60
60
F0
00
00
ENDCHAR
STARTCHAR C0073
ENCODING -1 115
SWIDTH 500 0
DWIDTH 5 0
BBX 5 10 0 -10
BITMAP
00
00
00
70
C8
70
98
70
00
00
ENDCHAR
STARTCHAR C0074
ENCODING -1 116
SWIDTH 500 0
DWIDTH 5 0
BBX 5 10 0 -10
BITMAP
00
20
60
F0
60
60
68
30
00
00
ENDCHAR
STARTCHAR C0075
ENCODING -1 117
SWIDTH 700 0
DWIDTH 7 0
BBX 7 10 0 -10
BITMAP
00
00
00
FE
6C
6C
6C
3E
00
00
ENDCHAR
STARTCHAR C0076
ENCODING -1 118
SWIDTH 700 0
DWIDTH 7 0
BBX 7 10 0 -10
BITMAP
00
00
00
EE
6C
38
38
10
00
00
ENDCHAR
STARTCHAR C0077
ENCODING -1 119
SWIDTH 900 0
DWIDTH 9 0
BBX 9 10 0 -10
BITMAP
0000
0000
0000
EB80
6B00
3E00
3E00
1400
0000
0000
ENDCHAR
STARTCHAR C0078
ENCODING -1 120
SWIDTH 700 0
DWIDTH 7 0
BBX 7 10 0 -10
BITMAP
00
00
00
EE
6C
38
6C
EE
00
00
ENDCHAR
STARTCHAR C0079
ENCODING -1 121
SWIDTH 700 0
DWIDTH 7 0
BBX 7 10 0 -10
BITMAP
00
00
00
EE
6C
38
38
10
D0
60
ENDCHAR
STARTCHAR C007A
ENCODING -1 122
SWIDTH 700 0
DWIDTH 7 0
BBX 7 10 0 -10
BITMAP
00
00
00
7C
D8
30
6C
F8
00
00
ENDCHAR
STARTCHAR C007B
ENCODING -1 123
SWIDTH 800 0
DWIDTH 8 0
BBX 8 10 0 -10
BITMAP
00
0E
18
18
18
70
18
18
18
0E
ENDCHAR
STARTCHAR C007C
ENCODING -1 124
SWIDTH 400 0
DWIDTH 4 0
BBX 4 10 0 -10
BITMAP
60
60
60
60
60
60
60
60
60
60
ENDCHAR
STARTCHAR C007D
ENCODING -1 125
SWIDTH 800 0
DWIDTH 8 0
BBX 8 10 0 -10
BITMAP
00
70
18
18
18
0E
18
18
18
70
ENDCHAR
STARTCHAR C007E
ENCODING -1 126
SWIDTH 700 0
DWIDTH 7 0
BBX 7 10 0 -10
BITMAP
00
38
4C
6C
18
30
00
30
00
00
ENDCHAR
STARTCHAR C007F
ENCODING -1 127
SWIDTH 1600 0
DWIDTH 16 0
BBX 16 10 0 -10
BITMAP
0007
000E
009C
01B8
03F0
16E0
3CC0
7880
D000
8000
ENDCHAR
ENDFONT
